<svg xmlns="http://www.w3.org/2000/svg" viewBox="0 0 180 111.25"><title>logo-white</title><path d="M36.18,0.21H47.95V3.7H44.11v9.5H40V3.7H36.18V0.21Z" style="fill:#fff"/><path d="M61.28,0.21v13H57.17V8.38H53v4.83H48.94v-13H53V4.89h4.13V0.21h4.11Z" style="fill:#fff"/><path d="M72.45,0.21V3.7H66.71V4.93H72V8.32H66.71V9.69h5.74v3.51H62.67v-13h9.78Z" style="fill:#fff"/><path d="M81.72,9.48v3.72h-4v-13H84c2.86,0,4.89,1.74,4.89,4.74a4.18,4.18,0,0,1-2.22,3.92l2.69,4.34H84.85L82.67,9.48h-1Zm0-3.22h1.74A1.23,1.23,0,0,0,84.91,5a1.24,1.24,0,0,0-1.46-1.33H81.72V6.26Z" style="fill:#fff"/><path d="M89.95,7.83V0.21H94V7.47c0,1.46.74,2.29,1.84,2.29s1.84-.83,1.84-2.29V0.21h4.08V7.83c0,3.58-2.29,5.59-5.93,5.59S89.95,11.41,89.95,7.83Z" style="fill:#fff"/><path d="M115.15,13.21h-3.37L107,6.71v6.5h-4v-13h3.83l4.28,6.05V0.21h4v13Z" style="fill:#fff"/><path d="M126.64,13.42a6.36,6.36,0,0,1-6.54-6.71,6.55,6.55,0,1,1,13.1,0A6.37,6.37,0,0,1,126.64,13.42Zm0-9.84c-1.44,0-2.41,1.19-2.41,3.13s1,3.13,2.41,3.13,2.43-1.19,2.43-3.13S128.08,3.58,126.64,3.58Z" style="fill:#fff"/><path d="M134.19,13.21v-13h9.63V3.75h-5.59V5.57h5.08V9h-5.08v4.21h-4Z" style="fill:#fff"/><path d="M15.5,41.19a7.18,7.18,0,0,0,2.82,5.88l-2.26,4.18A7.69,7.69,0,0,0,11.22,50C7.59,50.35,5.38,53.29,5.7,57S8.57,63.36,12.44,63a6.49,6.49,0,0,0,5.14-9.48l4.58-1.75c3.44,8.33-2,15.49-9.53,16.15A11.19,11.19,0,0,1,.34,57.6c-0.6-6.83,4.75-12.51,10.89-12.41a9.36,9.36,0,0,1-.74-3A11.24,11.24,0,0,1,11.6,36.2a17.6,17.6,0,0,1-1.49-7l3.6,0.2a11.79,11.79,0,0,0,.49,3.34A10.77,10.77,0,0,1,20.53,30c5.17-.45,7.64,2.75,7.9,5.75,0.26,3.4-2.14,6.87-6.8,7.28A8.28,8.28,0,0,1,15.5,41.19Zm1.08-4A5.33,5.33,0,0,0,21,39.07c1.74-.15,2.84-1.24,2.74-2.39s-1.25-2-3.14-1.8A5.52,5.52,0,0,0,16.58,37.15Zm7.58,14.78c2.55-5.44,4.21-10.6,8.71-11,3-.27,4.27,2,4.36,5.23l5.06-6.29,2.39,1.9-7.58,9.38a41.55,41.55,0,0,0-.22,5.67c0.07,0.79.29,1.92,1.31,1.83,1.78-.15,5-3.75,7.37-8.6a2.7,2.7,0,0,1,2.14,1.29c-2.47,5.39-6.36,10.54-11,11-2.8.24-4.54-1.43-5-4.5l-3.84,4.75-4.15.36,8-9.89a62.65,62.65,0,0,0,.19-6.94c-0.06-.67-0.17-1.06-0.61-1-1.62.14-3.44,4.76-5,8.16A2.7,2.7,0,0,1,24.16,51.93ZM68.72,49.5c-2.54,5.55-6.91,10.59-13.47,11.17-4.78.42-6.34-1.91-6.34-1.91l1.71-1.86a2,2,0,0,0,1.34.72c2.37-.21,5.7-9,5.38-12.65-0.1-1.11-.54-1.62-1.37-1.55-1.42.12-3,1.74-4.17,3.71L45.15,68.92l-5.57.49,9-29.32,5.53-.48-0.52,1.76a6.88,6.88,0,0,1,4.58-2.63c3-.26,4.44,2,4.69,4.92,0.45,5.13-3,12.12-4.44,13.88,3.24-1.6,5.86-4.41,8.18-9.31A2.7,2.7,0,0,1,68.72,49.5Zm11.42-1c-2.61,5.64-6,10.52-10.35,10.89-3.47.3-6-2.14-3.82-9.49L72,30.15l5.57-.49L71.18,50.72c-1.39,4.58-.63,5.11.12,5,1.74-.15,4.35-3.53,6.69-8.55A2.7,2.7,0,0,1,80.14,48.51Zm21.6-1.89c-1.88,4-5.2,6.94-9.24,6.74a10.25,10.25,0,0,1-7.58,4.72c-4.23.37-7-2-7.35-6.28-0.46-5.21,2.63-15,10.64-15.69,4.15-.36,6.85,1.87,7.22,6.17a18.86,18.86,0,0,1-1.36,8.12c2-.21,4-1.86,5.53-5.06A2.7,2.7,0,0,1,101.74,46.62ZM87.55,51.8a3,3,0,0,1,1.94-5.14,15.64,15.64,0,0,0,.65-4.87c-0.14-1.54-.9-2.07-1.73-2-3.24.28-5.82,9.38-5.55,12.54,0.12,1.38.82,2.16,1.81,2.07S86.72,53.26,87.55,51.8Zm36.66-7.15c-2.61,5.6-5.92,10.51-10.51,10.91-3.95.35-4.55-2.86-4.55-2.86s-2.32,3.47-5.72,3.76c-2.84.25-4.46-1.88-4.69-4.52-0.38-4.3,2.3-17,9.33-17.57a4.51,4.51,0,0,1,4.7,2.81l3.35-10.88,5.57-.49-6.43,21.05c-1.39,4.58-.63,5.11.12,5,1.74-.15,4.35-3.53,6.69-8.55A2.7,2.7,0,0,1,124.21,44.65Zm-14.84,3.65,2.2-7.15s-0.21-2.41-2-2.25c-3.32.29-5.72,8.74-5.48,11.46a1.24,1.24,0,0,0,1.43,1.39C107.71,51.54,109.37,48.29,109.37,48.29Zm26.26-4.64c-2.61,5.64-6,10.51-10.35,10.89-3.48.3-6-2.14-3.82-9.49l3.6-11.66,5.57-.49-4,13c-1.39,4.58-.63,5.11.12,5,1.74-.15,4.35-3.53,6.69-8.54A2.7,2.7,0,0,1,135.63,43.65Zm-9.35-15.46a3.1,3.1,0,0,1,2.81-3.35,3.17,3.17,0,0,1,3.43,2.8,3.23,3.23,0,0,1-2.88,3.44A3.16,3.16,0,0,1,126.28,28.19Zm31.35,13.53c-2.68,5.77-6,10.51-10.47,10.9-3.83.33-5.82-2.39-3.63-9.63l0.71-2.37a17.49,17.49,0,0,0,1-4.11,0.9,0.9,0,0,0-1.1-.74c-1,.09-2.77,1.12-4.3,3.2l-4.33,14.15-5.57.49,6.5-21.22,5.57-.49-0.65,2.17a10.23,10.23,0,0,1,5.89-3.14c2.25-.2,3.66.91,3.84,3a13.2,13.2,0,0,1-.82,4.69l-1.6,5.31c-1.46,4.7-.55,5.1.12,5,1.74-.15,4.27-3.52,6.65-8.54A2.71,2.71,0,0,1,157.63,41.73Zm22.08-1.93c-3.45,7.46-7.7,10.26-11.82,12.69,0,0-.43,1.47-0.77,2.54-1.25,3.93-3.13,7.91-7.63,8.31-3.08.27-4.83-1.53-4.95-3.79-0.15-2.65,2-4.55,4-5.72,1.28-.79,3.57-1.94,4.39-2.53l0.86-2.86s-1.74,2.9-4.5,3.14-4.34-1.85-4.58-4.61c-0.37-4.26,2.11-16.86,9.25-17.48a4.5,4.5,0,0,1,4.74,2.81l0.87-2.78L175.1,29,169,48.81c3.55-2.22,6.16-5.16,8.53-10.3A2.7,2.7,0,0,1,179.7,39.79ZM158.42,59.88c0.95-.08,2.32-1.24,3.38-5-1.13.73-2,1.13-3,1.85s-1.63,1.38-1.55,2.25A1,1,0,0,0,158.42,59.88Zm6.83-16.48,2.2-7.15s-0.21-2.41-2-2.25c-3.36.29-5.72,8.74-5.48,11.46,0.09,1.07.6,1.46,1.39,1.39C163.59,46.66,165.26,43.41,165.26,43.41ZM63.19,97.75c-3.39,7.22-8.66,12.5-15.37,13.08-5.77.5-8.21-2.86-8.62-7.52a23.58,23.58,0,0,1,.2-5.47C34,96.68,31.1,93,30.71,88.53A10.45,10.45,0,0,1,35.09,79l3,3.6a6,6,0,0,0-2.62,5.56,6.09,6.09,0,0,0,4.8,5.27c2.22-8.71,7.44-18.16,14.51-18.78,4.34-.38,6.77,2.83,7.11,6.66A14.74,14.74,0,0,1,57,92.92a18.65,18.65,0,0,1-11.84,5.21l-0.28,0a20.39,20.39,0,0,0-.26,4.72c0.18,2,1,4.25,4.17,4,3.51-.31,9.07-3.7,12.26-10.38A2.7,2.7,0,0,1,63.19,97.75Zm-17.25-4.3a12.2,12.2,0,0,0,7.42-3.91,10.29,10.29,0,0,0,3-7.18c-0.11-1.22-.71-2.21-2-2.09C51.22,80.53,47.81,87.07,45.94,93.45ZM84.8,95.86c-1.88,4-5.2,6.94-9.24,6.74A10.25,10.25,0,0,1,68,107.32c-4.23.37-7-2-7.35-6.28-0.46-5.21,2.63-15,10.64-15.7,4.15-.36,6.85,1.87,7.22,6.17a18.87,18.87,0,0,1-1.36,8.12c2-.21,4-1.86,5.53-5.06A2.7,2.7,0,0,1,84.8,95.86ZM70.6,101a3,3,0,0,1,1.94-5.14A15.58,15.58,0,0,0,73.19,91c-0.13-1.54-.9-2.07-1.73-2-3.24.28-5.82,9.38-5.55,12.54,0.12,1.38.82,2.16,1.81,2.07S69.78,102.5,70.6,101Zm25.61-6.18c-2.61,5.64-6,10.52-10.35,10.89-3.47.3-6-2.14-3.81-9.49l6.07-19.75L93.69,76,87.25,97.07c-1.39,4.58-.63,5.11.12,5,1.74-.15,4.35-3.53,6.69-8.55A2.7,2.7,0,0,1,96.21,94.86ZM117.81,93c-1.88,4-5.2,6.94-9.24,6.74a10.25,10.25,0,0,1-7.58,4.72c-4.23.37-7-2-7.35-6.28-0.46-5.21,2.63-15,10.64-15.7,4.15-.36,6.85,1.87,7.23,6.17a18.88,18.88,0,0,1-1.36,8.12c2-.21,4-1.86,5.53-5.06A2.7,2.7,0,0,1,117.81,93Zm-14.19,5.18A3,3,0,0,1,105.56,93a15.61,15.61,0,0,0,.65-4.87c-0.13-1.54-.9-2.07-1.73-2-3.24.28-5.82,9.38-5.55,12.54,0.12,1.38.83,2.16,1.81,2.07S102.8,99.61,103.62,98.15Zm35.91-7.08c-2.54,5.55-6,10.51-10.31,10.89-2.13.19-4-.68-4.53-3.14-1.6,2.21-3.48,3.85-5.89,4.06-3.36.29-6-2.06-3.74-9.5l3.56-11.65,5.57-.49-4,13c-1.24,4-.63,4.63.16,4.56,1.78-.16,3.53-3.29,5.27-7.11L129,80.81l5.57-.49-4,13c-1.33,4.41-.66,5.15.24,5.07,1.74-.15,4.19-3.55,6.57-8.57A2.7,2.7,0,0,1,139.54,91.07Zm-2.14-1.29c0.76-1.74,1.74-4.21,2.66-6.84a3.6,3.6,0,0,1-1.44-2.34c-0.17-2,1.66-4.17,3.24-4.82L144.4,77l-1.06,3.39c1.74,1.28,6.19,3,6.44,5.8a5.49,5.49,0,0,1-.3,2l-1,3.43c-1.43,4.62-.43,5.13.17,5.08,1.22-.11,3-2.89,5.63-8.45a2.7,2.7,0,0,1,2.14,1.29c-2.54,5.51-5.25,10.45-9.4,10.81-3.08.27-6.09-1.85-3.89-9L144.16,88a3.84,3.84,0,0,0,.23-1.41c-0.07-.79-1-1.39-2.19-2.28a71.53,71.53,0,0,1-2.67,6.8A2.7,2.7,0,0,1,137.4,89.78Z" style="fill:#fff"/></svg>