<?xml version="1.0" encoding="utf-8"?>
<!-- Generator: Adobe Illustrator 17.1.0, SVG Export Plug-In . SVG Version: 6.00 Build 0)  -->
<!DOCTYPE svg PUBLIC "-//W3C//DTD SVG 1.1//EN" "http://www.w3.org/Graphics/SVG/1.1/DTD/svg11.dtd">
<svg version="1.1" id="Layer_1" xmlns="http://www.w3.org/2000/svg" xmlns:xlink="http://www.w3.org/1999/xlink" x="0px" y="0px"
	 viewBox="5 3 200 123.6" enable-background="new 5 3 200 123.6" xml:space="preserve">
<g>
	<path fill="#EA2227" d="M205,120.1c-66.7-22.2-133.3,22.2-200,0C5,83.2,5,46.3,5,9.4c66.7,22.2,133.3-22.2,200,0
		C205,46.3,205,83.2,205,120.1z"/>
	<g>
		<path fill="#FFFFFF" d="M13.6,27.8l12.3,2.4v4.6l-7.6-1.5v10.6l6.9,1.4v4.4l-6.8-1.4v17l-4.8-1C13.6,64.4,13.6,27.8,13.6,27.8z"/>
		<path fill="#FFFFFF" d="M29.2,30.6l12,1.1v4.6l-7.1-0.6v10.7l6.4,0.6v4.5l-6.4-0.6V63l7.2,0.6v4.6l-12.1-1.1
			C29.2,67.2,29.2,30.6,29.2,30.6z"/>
		<path fill="#FFFFFF" d="M48.8,61.6c0,1.2,0,3.5,2.5,3.5c2.3,0,2.3-2.4,2.3-4.3c0-3.4-0.6-5-3.9-9.8c-2.9-4.2-5-7.2-5-11.9
			c0-2,0.4-3.6,1.2-5c1.4-2.3,3.7-3.1,6.2-3.1c4.6-0.1,6.2,2.4,6.2,6.2v6.5l-4.4,0.1v-6.5c0-1.1-0.2-2.5-1.9-2.5
			c-2.2,0-2.4,1.9-2.4,3.7c0,3.7,1.1,5.4,4.7,10.5c2.3,3.4,4.3,6.4,4.3,11.1c0,2.4-0.6,4.8-1.7,6.3c-1.7,2.3-4.1,2.5-5.5,2.5
			c-7,0.1-7-6-7-7.8V55l4.4-0.1L48.8,61.6L48.8,61.6z"/>
		<path fill="#FFFFFF" d="M61.4,31.5l16.1-1.6v4.3l-5.7,0.6v32.2l-4.9,0.5V35.2l-5.5,0.6L61.4,31.5L61.4,31.5z"/>
		<path fill="#FFFFFF" d="M85.3,28.6v36.5l-4.7,0.7V29.3L85.3,28.6z"/>
		<path fill="#FFFFFF" d="M100.3,26.1l4.7-0.8l-5.5,37.5l-5.6,0.9l-5.6-35.6l4.7-0.8L95.8,48c0.5,4.1,0.6,4.5,0.7,8l0.5-0.1
			c0.1-3.4,0.1-3.5,0.7-8.6L100.3,26.1z"/>
		<path fill="#FFFFFF" d="M115.3,23.6l5.6,35.6l-4.6,0.8l-0.9-6.6l-5.4,0.9l-0.8,6.9l-4.6,0.8l5.1-37.4L115.3,23.6z M112.2,31
			c-0.2,4.8-0.2,5.3-0.3,5.9l-1.5,12.8l4.3-0.7l-1.8-12.4c-0.2-1.4-0.3-2.8-0.3-5.7L112.2,31z"/>
		<path fill="#FFFFFF" d="M128.9,21.5v32.1l7.9-1.1V57L124,58.7V22.1L128.9,21.5z"/>
		<path fill="#FFFFFF" d="M151.2,29c0-3.3,0.2-5.7,1.8-7.6c1.5-1.7,3.7-2.6,6-2.6c2,0,4,0.4,5.5,2c2,2.1,2,4.6,2,9.1v17.3
			c0,2.7-0.1,8.6-8,8.7c-1,0-4.7,0.1-6.5-3.5c-0.9-1.6-0.9-3.4-0.9-5.2L151.2,29L151.2,29z M161.7,28.5c0-3.2,0-5.6-2.8-5.6
			c-0.4,0-2.1,0-2.7,1.8c-0.3,0.7-0.3,1.5-0.3,3.8v19.6c0,1.8,0.2,3.8,2.8,3.8c2.8,0,2.9-2.4,2.9-5V28.5z"/>
		<path fill="#FFFFFF" d="M170.5,19.1l12.5,1.1v4.6l-7.7-0.7v10.6l7,0.6v4.5l-6.9-0.6v17l-4.8-0.4L170.5,19.1L170.5,19.1z"/>
	</g>
	<g>
		<path fill="#FFFFFF" d="M13.7,80.4c0-3.2,0-5.3,1.3-7.1c1.7-2.4,4.4-2.2,5.9-1.9c6.4,1.2,6.4,6.5,6.4,9.2v3.8L23,83.6v-4.1
			c0-2.1-0.1-3.7-2.2-4.1c-2.4-0.4-2.4,1.8-2.4,3.6v21c0,2.4,0,4.4,2.3,4.8c2.4,0.4,2.4-1.7,2.4-2.8v-8.3l-2.9-0.5v-4.4l7.6,1.4
			v19.5l-2.8-0.5l-0.4-1.8c-0.7,0.7-1.7,2-4.3,1.5c-6.5-1.2-6.5-7.7-6.5-10.3C13.7,98.4,13.7,80.4,13.7,80.4z"/>
		<path fill="#FFFFFF" d="M31.7,83.4c0-3.3,0.2-5.7,1.8-7.5c1.5-1.6,3.7-2.3,6-2.2c2,0.1,4,0.7,5.5,2.4c2,2.2,2,4.8,2,9.3v17.3
			c0,2.7-0.1,8.6-8,8.1c-1-0.1-4.7-0.3-6.5-3.9c-0.9-1.7-0.9-3.5-0.9-5.2V83.4z M42.2,83.7c0-3.2,0-5.6-2.8-5.7
			c-0.4,0-2.1-0.1-2.7,1.6c-0.3,0.7-0.3,1.5-0.3,3.8v19.6c0,1.8,0.2,3.8,2.8,4c2.8,0.2,2.9-2.2,2.9-4.8V83.7z"/>
		<path fill="#FFFFFF" d="M50.9,84.3c0-3.3,0.2-5.7,1.8-7.7c1.5-1.8,3.7-2.7,6-2.8c2-0.1,4,0.3,5.5,1.8c2,2,2,4.6,2,9.1v17.3
			c0,2.7-0.1,8.6-8,9c-1,0.1-4.7,0.2-6.5-3.2c-0.9-1.6-0.9-3.4-0.9-5.1L50.9,84.3L50.9,84.3z M61.5,83.4c0-3.2,0-5.6-2.8-5.4
			c-0.4,0-2.1,0.1-2.7,1.9c-0.3,0.7-0.3,1.5-0.3,3.8v19.6c0,1.8,0.2,3.8,2.8,3.7c2.8-0.1,2.9-2.5,2.9-5.1V83.4z"/>
		<path fill="#FFFFFF" d="M70.2,73.2L79,72c5.1-0.7,5.5,2.2,5.5,5.2v24.3c0,4.8-1.2,6.5-5.1,7l-9.2,1.2
			C70.2,109.7,70.2,73.2,70.2,73.2z M75,77v27.6l3.2-0.4c1.4-0.2,1.5-1,1.5-2.2v-23c0-1.4-0.1-2.5-1.9-2.3L75,77z"/>
		<path fill="#FFFFFF" d="M99.1,68.9l15.9-2.7v4.3l-5.6,1v32.2l-4.8,0.8V72.3l-5.5,0.9C99.1,73.2,99.1,68.9,99.1,68.9z"/>
		<path fill="#FFFFFF" d="M123,64.9v14.8l4.5-0.7V64.2l4.8-0.7V100l-4.8,0.7v-17l-4.4,0.7v17l-4.8,0.7V65.6L123,64.9z"/>
		<path fill="#FFFFFF" d="M140.9,62.6v36.5l-4.7,0.5V63.1L140.9,62.6z"/>
		<path fill="#FFFFFF" d="M150.1,61.8l5.4,23.1c0.3,1.4,0.5,2.4,0.8,3.6l0.3,0c-0.2-1.7-0.4-3.4-0.5-5.2l-0.2-3.4l-0.2-18.4l4.5-0.2
			v36.5l-5.3,0.2l-6-27.1l-0.3,0l0.3,3.1l0.2,3.1l0.4,21l-4.5,0.2V62.1L150.1,61.8z"/>
		<path fill="#FFFFFF" d="M164.2,71.3c0-3.2,0-5.3,1.3-7.3c1.7-2.6,4.4-2.7,6-2.6c6.5,0.4,6.5,5.7,6.5,8.4v3.8l-4.4-0.3v-4.1
			c0-2.1-0.1-3.7-2.2-3.9c-2.4-0.2-2.4,2.1-2.4,3.9v21c0,2.4,0,4.4,2.4,4.5c2.4,0.2,2.4-2,2.4-3.1v-8.3l-2.9-0.2v-4.4l7.7,0.5v19.5
			l-2.9-0.2l-0.4-1.7c-0.7,0.8-1.7,2.2-4.4,2c-6.6-0.4-6.6-6.9-6.6-9.5L164.2,71.3L164.2,71.3z"/>
		<path fill="#FFFFFF" d="M186.6,93.4c0,1.2,0,3.5,2.4,4c2.2,0.4,2.3-1.9,2.3-3.8c0-3.4-0.6-5.1-3.9-10.5c-2.9-4.7-4.9-8.2-4.9-12.9
			c0-2,0.4-3.5,1.2-4.8c1.4-2.1,3.6-2.3,6.1-1.9c4.5,0.8,6.1,3.6,6.1,7.4v6.5l-4.3-0.8V70c0-1.1-0.2-2.5-1.9-2.8
			c-2.2-0.4-2.4,1.4-2.4,3.2c0,3.7,1.1,5.6,4.6,11.5c2.3,3.9,4.3,7.2,4.3,11.9c0,2.4-0.6,4.6-1.7,5.9c-1.7,2-4.1,1.7-5.4,1.4
			c-6.9-1.3-6.9-7.3-6.9-9.2v-6.1l4.4,0.8V93.4z"/>
	</g>
</g>
</svg>
